<?xml version="1.0" encoding="utf-8"?>
<!-- Generator: Adobe Illustrator 15.1.0, SVG Export Plug-In . SVG Version: 6.00 Build 0)  -->
<!DOCTYPE svg PUBLIC "-//W3C//DTD SVG 1.1//EN" "http://www.w3.org/Graphics/SVG/1.1/DTD/svg11.dtd">
<svg version="1.1" id="Layer_1" xmlns="http://www.w3.org/2000/svg" xmlns:xlink="http://www.w3.org/1999/xlink" x="0px" y="0px"
	 width="139.214px" height="138.965px" viewBox="-1.786 -0.534 139.214 138.965"
	 enable-background="new -1.786 -0.534 139.214 138.965" xml:space="preserve">
<path d="M67.821-0.265c-38.164,0-69.214,31.049-69.214,69.214s31.049,69.214,69.214,69.214c38.165,0,69.213-31.049,69.213-69.214
	S105.986-0.265,67.821-0.265z M-0.393,68.948c0-1.929,0.101-3.834,0.258-5.723l4.285,5.127l-4.371,5.192
	C-0.323,72.025-0.393,70.494-0.393,68.948z M19.78,109.63l6.021,1.064l0.98,5.663h-7.002L19.78,109.63L19.78,109.63z
	 M115.781,28.096l-6.023-1.063l-0.982-5.674h7.006V28.096L115.781,28.096z M63.597,116.359l-8.151-1.44l-7.874-2.873l-7.195-4.166
	l-6.366-5.357l-5.349-6.4l-4.155-7.235l-2.817-7.808l-1.908-11.021v-5.385l1.467-8.305l2.887-7.911l4.25-7.343l5.354-6.36
	l6.499-5.432l7.28-4.181l7.901-2.853l5.375-0.931h11.109l8.299,1.467l7.744,2.826l7.285,4.217l6.312,5.313l5.355,6.409l4.133,7.197
	l2.836,7.854l1.912,11.045v5.377l-1.471,8.322l-2.873,7.872l-4.217,7.282l-5.438,6.462l-6.439,5.381l-7.303,4.195l-7.934,2.863
	l-5.299,0.917H63.597z M53.748,21.564l0.357-0.205h0.828L53.748,21.564z M47.097,24.23l-1.35,0.486l1.137-0.949l1.458-0.252
	L47.097,24.23z M39.666,28.496l-1.279,0.734l0.962-1.142l1.417-0.512L39.666,28.496z M33.028,34.044l-1.066,0.892l0.747-1.291
	l1.27-0.729L33.028,34.044z M27.565,40.535l-0.953,1.132l0.502-1.377l1.147-0.959L27.565,40.535z M23.224,48.033l-0.726,1.253
	l0.264-1.492l0.97-1.15L23.224,48.033z M20.278,56.106l-0.498,1.365v-1.493l0.75-1.295L20.278,56.106z M18.78,64.28l-0.135-0.78
	l0.135-0.37V64.28z M18.78,73.02l-0.319-0.884l0.319-1.806V73.02z M20.718,81.334l0.236,1.364l-1.174-2.045v-1.918L20.718,81.334z
	 M23.595,89.307l0.479,1.323l-0.922-1.104l-0.246-1.423L23.595,89.307z M27.837,96.694l0.701,1.221l-1.11-0.935l-0.492-1.366
	L27.837,96.694z M33.301,103.231l0.895,1.069l-1.252-0.726l-0.719-1.251L33.301,103.231z M39.801,108.702l1.063,0.895l-1.353-0.492
	l-0.921-1.103L39.801,108.702z M47.142,112.952l1.239,0.718l-1.426-0.252l-1.119-0.941L47.142,112.952z M55.186,115.887l1.291,0.472
	h-1.454l-1.243-0.721L55.186,115.887z M114.839,56.386l-0.24-1.392l1.182,2.058v1.94L114.839,56.386z M111.945,48.365l-0.471-1.302
	l0.928,1.109l0.246,1.417L111.945,48.365z M107.726,41.019l-0.705-1.229l1.1,0.926l0.492,1.363L107.726,41.019z M102.255,34.474
	l-0.873-1.045l1.246,0.722l0.707,1.232L102.255,34.474z M95.806,29.045l-1.104-0.929l1.348,0.491l0.938,1.121L95.806,29.045z
	 M88.372,24.742l-1.176-0.682l1.438,0.254l1.096,0.922L88.372,24.742z M80.462,21.856l-1.361-0.497h1.432l1.268,0.732L80.462,21.856
	z M81.794,116.163l-0.338,0.194h-0.785L81.794,116.163z M88.462,113.489l1.361-0.492l-1.15,0.962l-1.473,0.255L88.462,113.489z
	 M95.917,109.206l1.242-0.714l-0.957,1.139l-1.396,0.503L95.917,109.206z M102.49,103.713l1.121-0.937l-0.746,1.286l-1.297,0.745
	L102.49,103.713z M108.046,97.113l0.926-1.101l-0.514,1.41l-1.146,0.956L108.046,97.113z M112.343,89.691l0.719-1.241l-0.258,1.459
	l-0.953,1.133L112.343,89.691z M115.279,81.645l0.502-1.374v1.484l-0.75,1.295L115.279,81.645z M116.781,73.461l0.135,0.782
	l-0.135,0.371V73.461z M116.781,64.708l0.318,0.886l-0.318,1.81V64.708z M116.781,61.765v-2.971l1.162,2.026l-0.494,2.797
	L116.781,61.765z M116.781,56.786v-3.375l2.041,2.442l-0.607,3.432L116.781,56.786z M115.781,55.044l-1.68-2.925l-0.418-2.416
	l2.098,2.51V55.044z M113.341,47.739l-0.531-3.075l2.971,2.5v3.492L113.341,47.739z M112.062,46.206l-1.578-1.888l-0.836-2.316
	l1.973,1.661L112.062,46.206z M108.97,40.125l-1.051-2.912l2.873,1.663l0.564,3.257L108.97,40.125z M107.443,38.84l-1.875-1.578
	l-1.213-2.111l2.221,1.285L107.443,38.84z M103.361,33.419l-1.559-2.712l3.115,1.136l1.129,3.132L103.361,33.419z M101.634,32.419
	l-2.123-1.229l-1.586-1.898l2.42,0.883L101.634,32.419z M96.644,27.76l-1.99-2.382l3.268,0.578l1.65,2.873L96.644,27.76z
	 M94.769,27.076l-2.301-0.839l-1.869-1.575l2.525,0.446L94.769,27.076z M89.072,23.376l-2.398-2.019h3.316l2.139,2.559
	L89.072,23.376z M87.107,23.03l-2.436-0.43l-2.145-1.241h2.594L87.107,23.03z M80.8,20.359l-3.275-1.896l3.445-0.597l2.963,2.493
	H80.8z M78.806,20.359h-2.445l-3.15-1.149l2.779-0.48L78.806,20.359z M73.443,20.359H71.99l-2.682-0.475l1.924-0.333L73.443,20.359z
	 M60.824,20.338l1.744-0.629l0.937,0.166L60.824,20.338z M57.823,20.359h-1.978l2.446-1.405l2.297,0.406L57.823,20.359z
	 M53.838,20.359h-2.876l2.667-2.229l3.128,0.554L53.838,20.359z M52.097,21.359l-1.225,0.703l-2.457,0.425l1.351-1.128H52.097z
	 M46.45,22.827l-3.128,0.542l1.692-2.01h3.192L46.45,22.827z M44.918,24.107l-1.914,1.6l-2.371,0.856l1.688-2.006L44.918,24.107z
	 M38.755,27.24l-2.956,1.067l1.688-2.914l3.305-0.572L38.755,27.24z M37.469,28.768l-1.612,1.917l-2.147,1.232l1.312-2.266
	L37.469,28.768z M31.978,32.911l-2.747,1.578l1.153-3.165l3.176-1.146L31.978,32.911z M30.978,34.64l-1.255,2.167l-1.926,1.608
	l0.9-2.468L30.978,34.64z M26.266,39.697l-2.433,2.033l0.587-3.325l2.931-1.684L26.266,39.697z M25.582,41.571l-0.85,2.33
	l-1.623,1.927l0.455-2.57L25.582,41.571z M21.825,47.355l-2.044,2.429v-3.364l2.593-2.167L21.825,47.355z M21.477,49.321l-0.44,2.49
	l-1.257,2.171v-2.646L21.477,49.321z M18.78,55.709l-1.143,1.974l-0.546-3.152l1.688-2.005V55.709z M18.78,57.704v2.506l-0.479,1.31
	l-0.398-2.303L18.78,57.704z M17.614,63.407l-1.158,3.173l-1.081-2.994l1.747-3.018L17.614,63.407z M17.957,65.385l0.337,1.949
	l-0.515,2.913l-0.794-2.201L17.957,65.385z M17.43,72.226l-0.587,3.315l-1.586-2.762l1.193-3.269L17.43,72.226z M18.112,74.115
	l0.668,1.852v2.947l-1.16-2.019L18.112,74.115z M18.78,80.921v3.376l-2.037-2.438l0.606-3.432L18.78,80.921z M19.78,82.662
	l1.672,2.911l0.419,2.422l-2.091-2.502V82.662z M22.212,89.962l0.532,3.074l-2.964-2.495v-3.489L22.212,89.962z M23.492,91.494
	l1.571,1.881l0.837,2.319l-1.969-1.657L23.492,91.494z M26.578,97.573l1.058,2.932l-2.873-1.663l-0.565-3.272L26.578,97.573z
	 M28.106,98.858l1.886,1.588l1.224,2.13l-2.233-1.294L28.106,98.858z M32.209,104.306l1.549,2.697l-3.124-1.14l-1.126-3.121
	L32.209,104.306z M33.937,105.306l2.13,1.233l1.57,1.88l-2.421-0.884L33.937,105.306z M38.917,109.95l2.007,2.401l-3.273-0.578
	l-1.66-2.893L38.917,109.95z M40.792,110.634l2.304,0.842l1.896,1.595l-2.538-0.448L40.792,110.634z M46.518,114.356l2.379,2.003
	h-3.321l-2.127-2.545L46.518,114.356z M48.484,114.703l2.423,0.428l2.12,1.229H50.45L48.484,114.703z M54.754,117.359l3.287,1.902
	l-3.435,0.596l-2.967-2.498H54.754z M56.751,117.359h2.467l3.158,1.151l-2.798,0.484L56.751,117.359z M62.134,117.359h1.377
	l2.732,0.481l-1.89,0.327L62.134,117.359z M74.7,117.393l-1.727,0.623l-0.928-0.164L74.7,117.393z M77.74,117.359h1.975
	l-2.461,1.413l-2.303-0.407L77.74,117.359z M81.722,117.359h2.883l-2.68,2.238l-3.137-0.555L81.722,117.359z M83.464,116.359
	l1.205-0.692l2.475-0.428l-1.342,1.12H83.464z M89.109,114.898l3.115-0.539l-1.686,2h-3.178L89.109,114.898z M90.64,113.617
	l1.928-1.611l2.35-0.848l-1.693,2.012L90.64,113.617z M96.792,110.482l2.98-1.076l-1.691,2.924l-3.328,0.576L96.792,110.482z
	 M98.079,108.953l1.609-1.913l2.176-1.25l-1.314,2.271L98.079,108.953z M103.597,104.795l2.744-1.575l-1.156,3.168l-3.174,1.146
	L103.597,104.795z M104.597,103.069l1.254-2.164l1.922-1.606l-0.898,2.464L104.597,103.069z M109.304,98.019l2.426-2.026
	l-0.588,3.318l-2.922,1.679L109.304,98.019z M109.988,96.144l0.861-2.362l1.605-1.908l-0.457,2.59L109.988,96.144z M113.741,90.346
	l2.039-2.423v3.378l-2.592,2.165L113.741,90.346z M114.089,88.381l0.434-2.457l1.258-2.172v2.618L114.089,88.381z M116.781,82.026
	l1.141-1.973l0.543,3.131l-1.684,2V82.026z M116.781,80.029v-2.498l0.477-1.311l0.398,2.297L116.781,80.029z M117.947,74.333
	l1.16-3.18l1.08,2.99l-1.75,3.021L117.947,74.333z M117.605,72.358l-0.34-1.956l0.516-2.919l0.797,2.207L117.605,72.358z
	 M118.13,65.505l0.59-3.334l1.592,2.771l-1.199,3.283L118.13,65.505z M118.991,60.636l0.668-3.78l2.506,3l-1.406,3.857
	L118.991,60.636z M119.886,55.57l0.762-4.309l3.562,2.998l-1.646,4.513L119.886,55.57z M119.048,54.567l-2.268-2.714v-3.848
	l2.984,2.513L119.048,54.567z M116.781,46.699v-4.355l4.018,2.326l-0.834,4.711L116.781,46.699z M115.781,45.858l-3.236-2.724
	l-0.623-3.604l3.859,2.234V45.858z M111.698,38.245l-0.727-4.193l4.809,1.755v4.801L111.698,38.245z M110.57,37.592l-3.178-1.84
	l-1.25-3.462l3.746,1.367L110.57,37.592z M105.7,31.065l-1.441-3.989l4.633,0.818l0.801,4.627L105.7,31.065z M104.476,30.618
	l-3.445-1.257l-1.824-3.178l3.918,0.691L104.476,30.618z M98.556,25.052l-2.121-3.693h4.697l1.602,4.433L98.556,25.052z
	 M97.273,24.826l-3.615-0.639l-2.363-2.829h3.988L97.273,24.826z M90.458,20.359l-3.02-3.613l4.725-0.818l2.545,4.432H90.458z
	 M89.154,20.359h-3.668l-3.229-2.716l4.041-0.7L89.154,20.359z M81.257,16.8l-3.189-2.686l4.508-1.627l2.984,3.567L81.257,16.8z
	 M79.97,17.024l-3.795,0.656l-3.068-1.775l3.873-1.398L79.97,17.024z M74.638,17.947l-3.314,0.574l-2.717-0.991l3.27-1.181
	L74.638,17.947z M69.345,18.864l-2.938,0.509l-1.95-0.345l2.685-0.969L69.345,18.864z M62.478,18.677l-2.833-0.5l3.038-1.744
	l2.991,1.092L62.478,18.677z M58.109,17.906l-3.479-0.614l3.163-2.643l3.661,1.336L58.109,17.906z M53.345,17.064l-4.105-0.727
	l3.099-3.681l4.372,1.595L53.345,17.064z M52.343,17.903l-2.938,2.456h-3.548l2.64-3.137L52.343,17.903z M44.548,20.359h-4.146
	l2.397-4.144l4.559,0.807L44.548,20.359z M43.706,21.359l-1.915,2.274l-3.651,0.633l1.683-2.908L43.706,21.359L43.706,21.359z
	 M36.855,24.489l-4.242,0.733l1.41-3.863h4.644L36.855,24.489z M36.202,25.616l-1.863,3.218L30.833,30.1l1.384-3.795L36.202,25.616z
	 M29.606,30.542l-4.055,1.463l0.829-4.688l4.7-0.813L29.606,30.542z M29.159,31.768l-1.275,3.494l-3.235,1.858l0.703-3.979
	L29.159,31.768z M23.518,37.77l-3.738,2.146v-4.764l4.487-1.62L23.518,37.77z M23.292,39.053l-0.648,3.672l-2.863,2.393v-4.047
	L23.292,39.053z M18.78,45.953l-2.772,2.316l-0.792-4.578l3.564-2.047V45.953z M18.78,47.255v3.716l-1.911,2.271l-0.664-3.834
	L18.78,47.255z M16.027,54.242l-2.817,3.346l-1.574-4.361l3.684-3.078L16.027,54.242z M16.25,55.531l0.606,3.501l-1.925,3.325
	l-1.329-3.683L16.25,55.531z M14.277,63.489l-2.187,3.776l-2.317-4.038l3.086-3.667L14.277,63.489z M14.719,64.717l1.201,3.328
	l-1.313,3.602l-1.941-3.38L14.719,64.717z M14.159,72.874l-1.497,4.104l-2.977-3.562l2.401-4.148L14.159,72.874z M14.81,74.008
	l1.762,3.068l-0.668,3.78l-2.501-2.993L14.81,74.008z M15.677,82.144l-0.761,4.305l-3.555-2.991l1.645-4.508L15.677,82.144z
	 M16.515,83.147l2.265,2.71V89.7l-2.979-2.508L16.515,83.147z M18.78,91.007v4.368l-4.015-2.324l0.834-4.721L18.78,91.007z
	 M19.78,91.85l3.229,2.718l0.627,3.62l-3.855-2.232V91.85z M23.858,99.472l0.725,4.184l-4.803-1.752v-4.792L23.858,99.472z
	 M24.986,100.124l3.178,1.84l1.246,3.452l-3.744-1.366L24.986,100.124z M29.852,106.643l1.446,4.009l-4.633-0.818l-0.805-4.646
	L29.852,106.643z M31.077,107.088l3.454,1.262l1.836,3.196l-3.932-0.694L31.077,107.088z M37.016,112.676l2.113,3.683h-4.708
	l-1.596-4.422L37.016,112.676z M38.299,112.904l3.621,0.64l2.354,2.815h-3.99L38.299,112.904z M45.109,117.359l3.023,3.618
	l-4.728,0.817l-2.548-4.437L45.109,117.359L45.109,117.359z M46.412,117.359h3.673l3.232,2.721l-4.046,0.7L46.412,117.359z
	 M54.318,120.92l3.183,2.681l-4.511,1.628l-2.978-3.562L54.318,120.92z M55.606,120.698l3.785-0.655l3.06,1.771l-3.863,1.394
	L55.606,120.698z M60.927,119.777l3.334-0.577l2.701,0.986l-3.282,1.185L60.927,119.777z M66.24,118.858l2.905-0.504l1.94,0.344
	l-2.657,0.959L66.24,118.858z M73.064,119.045l2.838,0.502l-3.02,1.733l-2.988-1.091L73.064,119.045z M77.437,119.82l3.486,0.616
	l-3.146,2.631l-3.666-1.337L77.437,119.82z M82.21,120.662l4.098,0.724l-3.088,3.667l-4.357-1.591L82.21,120.662z M83.214,119.825
	l2.951-2.467h3.533l-2.646,3.145L83.214,119.825z M91.005,117.359h4.164l-2.404,4.153l-4.576-0.809L91.005,117.359z M91.847,116.359
	l1.906-2.266l3.674-0.637l-1.68,2.901L91.847,116.359L91.847,116.359z M98.712,113.236l4.242-0.735l-1.406,3.858h-4.645
	L98.712,113.236z M99.366,112.107l1.869-3.229l3.504-1.265l-1.389,3.804L99.366,112.107z M105.964,107.17l4.047-1.461l-0.828,4.697
	l-4.695,0.812L105.964,107.17z M106.409,105.947l1.277-3.498l3.229-1.854l-0.703,3.98L106.409,105.947z M112.044,99.946l3.736-2.146
	v4.765l-4.484,1.619L112.044,99.946z M112.271,98.661l0.648-3.666l2.859-2.391v4.042L112.271,98.661z M116.781,91.77l2.77-2.314
	l0.791,4.573l-3.561,2.045V91.77z M116.781,90.465v-3.729l1.906-2.266l0.666,3.846L116.781,90.465z M119.529,83.47l2.814-3.346
	l1.578,4.372l-3.684,3.078L119.529,83.47z M119.306,82.184l-0.604-3.48l1.926-3.328l1.322,3.664L119.306,82.184z M121.284,74.244
	l2.193-3.787l2.311,4.024l-3.092,3.674L121.284,74.244z M120.841,73.015l-1.199-3.324l1.318-3.616l1.941,3.38L120.841,73.015z
	 M121.409,64.846l1.498-4.104l2.977,3.562l-2.402,4.151L121.409,64.846z M123.302,59.656l1.721-4.713l4.223,3.554l-2.828,4.885
	L123.302,59.656z M125.388,53.945l1.992-5.463l5.74,3.321l-3.367,5.816L125.388,53.945z M124.573,53.258l-3.725-3.135l0.869-4.922
	l4.783,2.77L124.573,53.258z M121.904,44.154l1.014-5.742l6.242,2.278l-2.309,6.328L121.904,44.154z M120.982,43.62l-4.201-2.433
	v-5.017l5.184,1.893L120.982,43.62z M116.781,35.109v-5.82l6.531,1.154l-1.17,6.622L116.781,35.109z M115.781,34.743l-5.004-1.826
	l-0.838-4.838l5.842,1.033V34.743z M108.71,26.847l-4.842-0.854l-1.672-4.633h5.562L108.71,26.847z M101.835,20.359l-2.074-5.747
	l6.633-1.148l1.191,6.896H101.835z M100.773,20.359h-4.912l-2.648-4.612l5.549-0.961L100.773,20.359z M92.681,14.823l-2.846-4.956
	l6.324-2.283l2.256,6.246L92.681,14.823z M91.632,15.003l-4.936,0.855l-3.119-3.733l5.303-1.914L91.632,15.003z M82.894,11.309
	l-3.66-4.381l5.836-3.352l3.305,5.754L82.894,11.309z M81.892,11.67l-4.709,1.7l-3.719-3.129l4.889-2.807L81.892,11.67z
	 M76.097,13.762l-4.119,1.487l-3.604-2.086l4.168-2.394L76.097,13.762z M70.747,15.694l-3.605,1.301l-3.325-1.213l3.556-2.042
	L70.747,15.694z M62.589,15.333l-3.907-1.426l3.675-3.072l4.016,2.325L62.589,15.333z M57.595,13.511l-4.572-1.669l3.627-4.31
	l4.784,2.77L57.595,13.511z M52.023,11.478l-5.352-1.953l3.369-5.819l5.73,3.317L52.023,11.478z M51.338,12.291l-3.236,3.845
	l-4.769-0.842l2.831-4.891L51.338,12.291z M42.284,15.11l-5.619-0.993l2.312-6.335l6.232,2.273L42.284,15.11z M41.751,16.031
	l-2.505,4.328h-4.858l1.931-5.288L41.751,16.031z M33.323,20.359H27.61l1.17-6.62l6.537,1.155L33.323,20.359z M32.958,21.359
	l-1.481,4.061l-4.91,0.851l0.868-4.911H32.958z M25.518,26.451l-5.738,0.994V21.36h6.638L25.518,26.451z M25.333,27.497
	l-0.866,4.899l-4.688,1.691v-5.63L25.333,27.497z M18.78,34.45l-4.861,1.754l-1.131-6.535l5.992-1.038V34.45z M18.78,35.513v4.979
	l-3.746,2.151l-0.941-5.438L18.78,35.513z M14.111,43.172l-5.056,2.903l-2.253-6.239l6.334-2.286L14.111,43.172z M14.292,44.221
	l0.829,4.79l-3.847,3.216l-1.875-5.195L14.292,44.221z M10.458,52.908l-4.467,3.733l-3.305-5.756l5.833-3.35L10.458,52.908z
	 M10.819,53.909l1.646,4.562l-3.225,3.831l-2.746-4.78L10.819,53.909z M8.556,63.118l-3.753,4.458L0.552,62.49l5.164-4.316
	L8.556,63.118z M9.087,64.041l2.425,4.224l-2.509,4.334l-3.547-4.244L9.087,64.041z M8.469,73.52l-2.92,5.044l-5.084-4.279
	l4.337-5.152L8.469,73.52z M9.152,74.335l3.114,3.728l-1.719,4.709l-4.222-3.555L9.152,74.335z M10.183,83.772l-1.997,5.472
	l-5.74-3.323l3.372-5.822L10.183,83.772z M10.997,84.456l3.718,3.13l-0.872,4.933l-4.778-2.768L10.997,84.456z M13.659,93.568
	l-1.013,5.731l-6.235-2.274l2.305-6.317L13.659,93.568z M14.58,94.101l4.2,2.432v5.006l-5.18-1.891L14.58,94.101z M18.78,102.602
	v5.838l-6.53-1.154l1.173-6.639L18.78,102.602z M19.78,102.966l4.999,1.824l0.841,4.856l-5.84-1.032V102.966z M26.848,110.879
	l4.842,0.855l1.668,4.623h-5.562L26.848,110.879z M33.719,117.359l2.077,5.754l-6.632,1.147l-1.195-6.901H33.719z M34.784,117.359
	h4.921l2.652,4.618l-5.56,0.963L34.784,117.359z M42.886,122.901l2.843,4.949l-6.334,2.285l-2.252-6.24L42.886,122.901z
	 M43.936,122.718l4.938-0.854l3.115,3.727l-5.305,1.915L43.936,122.718z M52.671,126.406l3.661,4.38l-5.838,3.353l-3.304-5.754
	L52.671,126.406z M53.672,126.044l4.713-1.701l3.718,3.129l-4.89,2.809L53.672,126.044z M59.472,123.952l4.108-1.483l3.604,2.086
	l-4.159,2.389L59.472,123.952z M64.811,122.025l3.616-1.306l3.322,1.212l-3.562,2.048L64.811,122.025z M72.978,122.379l3.912,1.429
	l-3.684,3.076l-4.02-2.326L72.978,122.379z M77.974,124.203l4.561,1.665l-3.631,4.314l-4.775-2.766L77.974,124.203z M83.534,126.233
	l5.363,1.957l-3.373,5.827l-5.742-3.325L83.534,126.233z M84.22,125.417l3.227-3.83l4.785,0.847l-2.824,4.878L84.22,125.417z
	 M93.281,122.619l5.619,0.992l-2.307,6.322l-6.23-2.274L93.281,122.619z M93.814,121.698l2.512-4.34h4.857l-1.936,5.3
	L93.814,121.698z M102.245,117.359h5.707l-1.172,6.631l-6.533-1.154L102.245,117.359z M102.611,116.359l1.479-4.056l4.906-0.85
	l-0.867,4.904L102.611,116.359L102.611,116.359z M110.042,111.274l5.738-0.993v6.078h-6.637L110.042,111.274z M110.228,110.226
	l0.867-4.906l4.686-1.691v5.638L110.228,110.226z M116.781,103.268l4.855-1.754l1.133,6.54l-5.988,1.037V103.268z M116.781,102.203
	v-4.978l3.742-2.149l0.939,5.437L116.781,102.203z M121.447,94.546l5.055-2.902l2.252,6.237l-6.334,2.286L121.447,94.546z
	 M121.265,93.497l-0.828-4.784l3.848-3.216l1.873,5.19L121.265,93.497z M125.101,84.816l4.475-3.74l3.303,5.753l-5.842,3.354
	L125.101,84.816z M124.74,83.815l-1.652-4.572l3.23-3.838l2.752,4.79L124.74,83.815z M127.003,74.589l3.752-4.457l4.26,5.095
	l-5.166,4.315L127.003,74.589z M126.474,73.666l-2.418-4.21l2.51-4.337l3.539,4.233L126.474,73.666z M127.099,64.199l2.924-5.048
	l5.072,4.271l-4.338,5.154L127.099,64.199z M130.531,58.273l3.445-5.953c0.844,3.353,1.434,6.804,1.758,10.332L130.531,58.273z
	 M127.73,47.527l2.342-6.418c1.416,3.153,2.6,6.432,3.529,9.816L127.73,47.527z M123.095,37.412l1.186-6.704
	c1.943,2.86,3.67,5.875,5.168,9.021L123.095,37.412z M116.781,28.273V21.52c2.391,2.467,4.594,5.113,6.594,7.918L116.781,28.273z
	 M108.601,20.359l-1.195-6.912c2.922,2.09,5.676,4.396,8.23,6.912H108.601z M99.417,13.656l-2.27-6.285
	c3.113,1.489,6.098,3.206,8.93,5.131L99.417,13.656z M89.329,8.986l-3.312-5.768c3.324,0.922,6.547,2.09,9.646,3.481L89.329,8.986z
	 M78.581,6.149l-4.26-5.098c3.451,0.328,6.828,0.913,10.111,1.737L78.581,6.149z M77.7,6.655L72.65,9.554l-4.366-3.675l5.163-4.314
	L77.7,6.655z M71.728,10.084l-4.355,2.5l-4.202-2.432l4.333-3.622L71.728,10.084z M62.252,9.619l-4.946-2.864l4.341-5.156
	l5.084,4.278L62.252,9.619z M56.426,6.246l-5.749-3.328c3.272-0.85,6.641-1.463,10.082-1.818L56.426,6.246z M45.719,9.177
	L39.51,6.911c3.075-1.409,6.271-2.594,9.569-3.538L45.719,9.177z M35.665,13.94L29.16,12.79c2.794-1.93,5.735-3.66,8.809-5.163
	L35.665,13.94z M26.594,20.359h-6.589c2.414-2.376,5.006-4.57,7.75-6.568L26.594,20.359z M18.78,27.617l-5.95,1.03
	c1.824-2.482,3.815-4.831,5.95-7.042V27.617z M12.964,36.549l-6.329,2.285c1.518-3.068,3.26-6.004,5.203-8.792L12.964,36.549z
	 M8.174,46.581l-5.853,3.361c0.962-3.312,2.167-6.521,3.599-9.605L8.174,46.581z M5.211,57.293l-5.208,4.354
	c0.371-3.47,1.004-6.859,1.877-10.154L5.211,57.293z M5.04,79.443l-3.425,5.916c-0.825-3.326-1.401-6.747-1.716-10.243L5.04,79.443z
	 M7.838,90.198l-2.343,6.422c-1.404-3.15-2.578-6.423-3.497-9.803L7.838,90.198z M12.469,100.298l-1.194,6.765
	c-1.946-2.878-3.669-5.918-5.165-9.085L12.469,100.298z M18.78,109.453v6.837c-2.409-2.495-4.628-5.172-6.639-8.01L18.78,109.453z
	 M26.955,117.359l1.22,7.047c-2.97-2.129-5.77-4.479-8.357-7.047H26.955z M36.142,124.069l2.325,6.444
	c-3.183-1.523-6.227-3.291-9.114-5.271L36.142,124.069z M46.235,128.73l3.421,5.958c-3.427-0.949-6.745-2.158-9.936-3.607
	L46.235,128.73z M56.983,131.566l4.417,5.285c-3.576-0.335-7.075-0.94-10.472-1.81L56.983,131.566z M57.863,131.06l5.053-2.901
	l4.369,3.678l-5.165,4.316L57.863,131.06z M63.839,127.627l4.346-2.495l4.206,2.437l-4.326,3.616L63.839,127.627z M73.312,128.102
	l4.938,2.857l-4.334,5.149l-5.075-4.271L73.312,128.102z M79.128,131.468l5.986,3.467c-3.402,0.893-6.906,1.529-10.492,1.888
	L79.128,131.468z M89.853,128.537l6.469,2.36c-3.197,1.478-6.527,2.711-9.967,3.684L89.853,128.537z M99.9,123.787l6.756,1.194
	c-2.898,2.015-5.953,3.819-9.152,5.374L99.9,123.787z M108.968,117.359h6.857c-2.504,2.481-5.205,4.765-8.066,6.839L108.968,117.359
	z M116.781,110.107l6.184-1.07c-1.891,2.592-3.957,5.042-6.184,7.341V110.107z M122.593,101.168l6.547-2.362
	c-1.559,3.187-3.363,6.227-5.379,9.109L122.593,101.168z M127.382,91.137l6.018-3.453c-0.98,3.418-2.213,6.727-3.689,9.902
	L127.382,91.137z M130.355,80.423l5.318-4.444c-0.365,3.553-1.012,7.022-1.902,10.395L130.355,80.423z M131.409,69.356l4.434-5.268
	c0.113,1.607,0.191,3.225,0.191,4.859c0,1.901-0.098,3.779-0.252,5.642L131.409,69.356z M72.656,0.924l-5.148,4.303l-5.062-4.262
	c1.776-0.139,3.563-0.23,5.375-0.23C69.448,0.735,71.056,0.812,72.656,0.924z M62.722,136.951l5.339-4.462l5.264,4.432
	c-1.818,0.146-3.65,0.241-5.504,0.241C66.104,137.161,64.408,137.077,62.722,136.951z"/>
</svg>
